<svg width="529" height="529" viewBox="0 0 529 529" fill="none" xmlns="http://www.w3.org/2000/svg">
<path d="M44.0859 215.126L242.461 161.124V220.416H154.294C142.603 220.416 131.39 225.061 123.123 233.328C114.855 241.595 110.211 252.808 110.211 264.5V440.833C110.211 452.525 114.855 463.737 123.123 472.005C131.39 480.272 142.603 484.916 154.294 484.916H374.711C386.403 484.916 397.615 480.272 405.883 472.005C414.15 463.737 418.794 452.525 418.794 440.833V264.5C418.794 252.808 414.15 241.595 405.883 233.328C397.615 225.061 386.403 220.416 374.711 220.416H286.544V149.001L484.919 94.9992V49.3729L44.0859 169.5V215.126ZM242.461 264.5V330.625H154.294V264.5H242.461ZM374.711 264.5V440.833H154.294V374.708H374.711V330.625H286.544V264.5H374.711Z" fill="white"/>
</svg>
