<svg width="963" height="963" viewBox="0 0 963 963" fill="none" xmlns="http://www.w3.org/2000/svg">
<path d="M401.252 454.75H481.502V508.25H401.252V454.75Z" fill="white"/>
<path d="M707.538 379.049C660.096 301.415 595.376 235.779 518.416 187.251C482.863 164.718 442.334 151.231 400.368 147.967C358.402 144.703 316.276 151.761 277.666 168.526C243.894 184.456 214.508 208.367 192.044 238.194C169.58 268.021 154.715 302.869 148.731 339.726C146.591 352.299 144.986 364.336 143.381 376.106C118.336 380.166 95.5487 392.992 79.0855 412.297C62.6223 431.603 53.5547 456.13 53.501 481.501V645.479C53.501 659.668 59.1376 673.276 69.1708 683.309C79.204 693.342 92.8119 698.979 107.001 698.979V481.501C107.001 467.312 112.638 453.704 122.671 443.671C132.704 433.638 146.312 428.001 160.501 428.001H661.528C713.084 428.072 762.508 448.584 798.963 485.039C835.418 521.494 855.93 570.918 856.001 622.474V642.001H802.501C791.203 614.452 770.158 592.026 743.38 579.004C716.603 565.982 685.968 563.275 657.322 571.399C628.676 579.523 604.024 597.91 588.069 623.051C572.115 648.192 565.976 678.327 570.824 707.706C575.671 737.085 591.166 763.65 614.351 782.334C637.536 801.017 666.788 810.509 696.526 809C726.264 807.491 754.405 795.086 775.58 774.152C796.754 753.217 809.48 725.22 811.328 695.501H856.001C870.19 695.501 883.798 689.865 893.831 679.831C903.864 669.798 909.501 656.19 909.501 642.001V622.474C909.393 564.745 889.169 508.859 852.308 464.431C815.448 420.003 764.255 389.81 707.538 379.049ZM294.251 374.501H185.378C185.378 366.209 187.786 357.649 189.391 347.751C194.013 318.365 206.074 290.65 224.427 267.239C242.781 243.829 266.817 225.502 294.251 214.001V374.501ZM347.751 374.501V202.766C397.692 196.281 448.34 207.242 491.131 233.796C549.546 270.181 599.963 318.05 639.326 374.501H347.751ZM690.151 759.166C676.924 759.166 663.995 755.244 652.997 747.896C642 740.547 633.428 730.103 628.366 717.883C623.305 705.663 621.981 692.217 624.561 679.244C627.141 666.272 633.511 654.356 642.863 645.003C652.216 635.651 664.132 629.282 677.104 626.701C690.077 624.121 703.523 625.445 715.743 630.507C727.963 635.568 738.407 644.14 745.755 655.137C753.104 666.135 757.026 679.064 757.026 692.291C757.026 710.027 749.98 727.037 737.439 739.579C724.897 752.12 707.887 759.166 690.151 759.166V759.166Z" fill="white"/>
<path d="M379.037 641.999C367.74 614.449 346.694 592.024 319.917 579.002C293.139 565.979 262.505 563.272 233.858 571.396C205.212 579.521 180.56 597.908 164.606 623.049C148.652 648.19 142.513 678.325 147.36 707.704C152.208 737.083 167.702 763.648 190.887 782.331C214.072 801.014 243.325 810.507 273.063 808.998C302.8 807.489 330.941 795.084 352.116 774.149C373.291 753.215 386.016 725.217 387.865 695.499H529.64V688.811C529.11 673.029 530.913 657.255 534.99 641.999H379.037ZM267.49 759.164C254.263 759.164 241.334 755.242 230.336 747.893C219.338 740.545 210.767 730.101 205.705 717.881C200.644 705.661 199.319 692.215 201.9 679.242C204.48 666.27 210.849 654.354 220.202 645.001C229.555 635.648 241.471 629.279 254.443 626.699C267.416 624.118 280.862 625.443 293.082 630.504C305.302 635.566 315.746 644.137 323.094 655.135C330.443 666.133 334.365 679.062 334.365 692.289C334.365 710.025 327.319 727.035 314.778 739.577C302.236 752.118 285.226 759.164 267.49 759.164V759.164Z" fill="white"/>
</svg>
